<svg xmlns="http://www.w3.org/2000/svg" xmlns:xlink="http://www.w3.org/1999/xlink" width="500" zoomAndPan="magnify" viewBox="0 0 375 374.999991" height="500" preserveAspectRatio="xMidYMid meet" version="1.0"><defs><g/><clipPath id="306f29e944"><path d="M 169.171875 207.140625 L 326 207.140625 L 326 211.445312 L 169.171875 211.445312 Z M 169.171875 207.140625 " clip-rule="nonzero"/></clipPath><clipPath id="ec732b6f36"><path d="M 177.277344 204.625 L 183.183594 204.625 L 183.183594 213.960938 L 177.277344 213.960938 Z M 177.277344 204.625 " clip-rule="nonzero"/></clipPath><clipPath id="481508286d"><path d="M 296.179688 204.625 L 302 204.625 L 302 213.960938 L 296.179688 213.960938 Z M 296.179688 204.625 " clip-rule="nonzero"/></clipPath><clipPath id="c62d6dd702"><path d="M 163.296875 198.285156 L 172.371094 198.285156 L 172.371094 219.539062 L 163.296875 219.539062 Z M 163.296875 198.285156 " clip-rule="nonzero"/></clipPath><clipPath id="e460fca42a"><path d="M 153.308594 198.285156 L 174.523438 198.285156 L 174.523438 219.496094 L 153.308594 219.496094 Z M 153.308594 198.285156 " clip-rule="nonzero"/></clipPath><clipPath id="9424eb0d2b"><path d="M 168.308594 198.285156 L 174.523438 204.5 L 174.523438 213.28125 L 168.308594 219.496094 L 159.523438 219.496094 L 153.308594 213.28125 L 153.308594 204.5 L 159.523438 198.285156 L 168.308594 198.285156 " clip-rule="nonzero"/></clipPath><clipPath id="d0b87efcba"><path d="M 304.808594 198.667969 L 326.019531 198.667969 L 326.019531 219.878906 L 304.808594 219.878906 Z M 304.808594 198.667969 " clip-rule="nonzero"/></clipPath><clipPath id="257d32a305"><path d="M 319.804688 198.667969 L 326.019531 204.882812 L 326.019531 213.664062 L 319.804688 219.878906 L 311.023438 219.878906 L 304.808594 213.664062 L 304.808594 204.882812 L 311.023438 198.667969 L 319.804688 198.667969 " clip-rule="nonzero"/></clipPath><clipPath id="9768dc90ac"><path d="M 306.335938 198.667969 L 315.414062 198.667969 L 315.414062 219.921875 L 306.335938 219.921875 Z M 306.335938 198.667969 " clip-rule="nonzero"/></clipPath></defs><g fill="#000000" fill-opacity="1"><g transform="translate(37.500002, 238.366287)"><g><path d="M 36.757812 -51 L 36.757812 -92.375 C 17.089844 -86.539062 6.105469 -71.078125 6.105469 -46.660156 C 6.105469 -14.785156 21.566406 1.628906 52.628906 1.628906 C 60.226562 1.628906 66.871094 0.542969 72.703125 -1.492188 L 64.703125 -21.566406 C 62.667969 -21.023438 60.496094 -20.753906 58.191406 -20.753906 C 43.949219 -20.753906 36.757812 -28.757812 36.757812 -42.320312 Z M 56.96875 -94.949219 C 55.476562 -94.949219 53.984375 -94.949219 52.492188 -94.816406 L 52.492188 -72.027344 C 54.257812 -72.433594 56.15625 -72.570312 58.191406 -72.570312 C 67.6875 -72.570312 75.824219 -67.550781 75.824219 -59.546875 L 104.445312 -59.546875 C 104.445312 -83.015625 83.148438 -94.949219 56.96875 -94.949219 Z M 88.980469 0 L 104.445312 0 L 104.445312 -52.085938 L 54.664062 -52.085938 L 54.664062 -33.097656 L 75.824219 -33.097656 Z M 88.980469 0 "/></g></g></g><g fill="#000000" fill-opacity="1"><g transform="translate(158.75466, 186.276993)"><g><path d="M 22.941406 -24.457031 L 22.941406 -33.652344 L 1.515625 -33.652344 L 1.515625 -24.457031 L 7.628906 -24.457031 L 7.628906 0 L 16.828125 0 L 16.828125 -24.457031 Z M 22.941406 -24.457031 "/></g></g></g><g fill="#000000" fill-opacity="1"><g transform="translate(183.21166, 186.276993)"><g><path d="M 19.859375 -18.34375 L 19.859375 -24.457031 L 6.113281 -24.457031 C 3.621094 -24.457031 1.515625 -22.355469 1.515625 -19.859375 L 1.515625 0 L 10.710938 0 L 10.710938 -18.34375 Z M 19.859375 -18.34375 "/></g></g></g><g fill="#000000" fill-opacity="1"><g transform="translate(203.65773, 186.276993)"><g><path d="M 13.15625 -6.113281 L 10.078125 -6.113281 L 10.078125 -9.195312 L 13.15625 -9.195312 Z M 22.304688 0 L 22.304688 -19.859375 C 22.304688 -22.355469 20.203125 -24.457031 17.707031 -24.457031 L 2.445312 -24.457031 L 2.445312 -18.34375 L 13.15625 -18.34375 L 13.15625 -15.261719 L 5.476562 -15.261719 C 2.984375 -15.261719 0.929688 -13.207031 0.929688 -10.710938 L 0.929688 -4.597656 C 0.929688 -2.101562 2.984375 0 5.476562 0 Z M 22.304688 0 "/></g></g></g><g fill="#000000" fill-opacity="1"><g transform="translate(227.478871, 186.276993)"><g><path d="M 10.710938 0 L 10.710938 -24.457031 L 1.515625 -24.457031 L 1.515625 0 Z M 10.710938 -27.488281 L 10.710938 -33.652344 L 1.515625 -33.652344 L 1.515625 -27.488281 Z M 10.710938 -27.488281 "/></g></g></g><g fill="#000000" fill-opacity="1"><g transform="translate(239.707395, 186.276993)"><g><path d="M 22.941406 -19.859375 C 22.941406 -22.355469 20.835938 -24.457031 18.34375 -24.457031 L 1.515625 -24.457031 L 1.515625 0 L 10.710938 0 L 10.710938 -18.34375 L 13.746094 -18.34375 L 13.746094 0 L 22.941406 0 Z M 22.941406 -19.859375 "/></g></g></g><g fill="#000000" fill-opacity="1"><g transform="translate(264.164394, 186.276993)"><g><path d="M 13.746094 -15.261719 L 10.710938 -15.261719 L 10.710938 -18.34375 L 13.746094 -18.34375 Z M 22.941406 -13.746094 L 22.941406 -19.859375 C 22.941406 -22.355469 20.835938 -24.457031 18.34375 -24.457031 L 6.113281 -24.457031 C 3.621094 -24.457031 1.515625 -22.355469 1.515625 -19.859375 L 1.515625 -4.597656 C 1.515625 -2.101562 3.621094 0 6.113281 0 L 21.425781 0 L 21.425781 -6.113281 L 10.710938 -6.113281 L 10.710938 -9.195312 L 18.34375 -9.195312 C 20.835938 -9.195312 22.941406 -11.25 22.941406 -13.746094 Z M 22.941406 -13.746094 "/></g></g></g><g fill="#000000" fill-opacity="1"><g transform="translate(288.621394, 186.276993)"><g><path d="M 13.746094 -15.261719 L 10.710938 -15.261719 L 10.710938 -18.34375 L 13.746094 -18.34375 Z M 22.941406 -13.746094 L 22.941406 -19.859375 C 22.941406 -22.355469 20.835938 -24.457031 18.34375 -24.457031 L 6.113281 -24.457031 C 3.621094 -24.457031 1.515625 -22.355469 1.515625 -19.859375 L 1.515625 -4.597656 C 1.515625 -2.101562 3.621094 0 6.113281 0 L 21.425781 0 L 21.425781 -6.113281 L 10.710938 -6.113281 L 10.710938 -9.195312 L 18.34375 -9.195312 C 20.835938 -9.195312 22.941406 -11.25 22.941406 -13.746094 Z M 22.941406 -13.746094 "/></g></g></g><g fill="#000000" fill-opacity="1"><g transform="translate(181.949949, 235.696758)"><g><path d="M 7.996094 -8.523438 L 7.996094 -11.726562 L 0.527344 -11.726562 L 0.527344 0 L 3.734375 0 L 3.734375 -4.261719 L 6.921875 -4.261719 L 6.921875 -7.464844 L 3.734375 -7.464844 L 3.734375 -8.523438 Z M 7.996094 -8.523438 "/></g></g></g><g fill="#000000" fill-opacity="1"><g transform="translate(190.47338, 235.696758)"><g><path d="M 3.734375 0 L 3.734375 -8.523438 L 0.527344 -8.523438 L 0.527344 0 Z M 3.734375 -9.582031 L 3.734375 -11.726562 L 0.527344 -11.726562 L 0.527344 -9.582031 Z M 3.734375 -9.582031 "/></g></g></g><g fill="#000000" fill-opacity="1"><g transform="translate(194.735103, 235.696758)"><g><path d="M 6.921875 0 L 6.921875 -2.128906 L 4.789062 -2.128906 L 4.789062 -6.390625 L 6.921875 -6.390625 L 6.921875 -8.523438 L 4.789062 -8.523438 L 4.789062 -11.726562 L 1.601562 -11.726562 L 1.601562 -8.523438 L 0.527344 -8.523438 L 0.527344 -6.390625 L 1.601562 -6.390625 L 1.601562 -1.601562 C 1.601562 -0.734375 2.335938 0 3.203125 0 Z M 6.921875 0 "/></g></g></g><g fill="#000000" fill-opacity="1"><g transform="translate(202.184589, 235.696758)"><g><path d="M 7.996094 -6.921875 C 7.996094 -7.789062 7.261719 -8.523438 6.390625 -8.523438 L 0.527344 -8.523438 L 0.527344 0 L 3.734375 0 L 3.734375 -6.390625 L 4.789062 -6.390625 L 4.789062 0 L 7.996094 0 Z M 7.996094 -6.921875 "/></g></g></g><g fill="#000000" fill-opacity="1"><g transform="translate(210.708019, 235.696758)"><g><path d="M 4.789062 -5.320312 L 3.734375 -5.320312 L 3.734375 -6.390625 L 4.789062 -6.390625 Z M 7.996094 -4.789062 L 7.996094 -6.921875 C 7.996094 -7.789062 7.261719 -8.523438 6.390625 -8.523438 L 2.128906 -8.523438 C 1.261719 -8.523438 0.527344 -7.789062 0.527344 -6.921875 L 0.527344 -1.601562 C 0.527344 -0.734375 1.261719 0 2.128906 0 L 7.464844 0 L 7.464844 -2.128906 L 3.734375 -2.128906 L 3.734375 -3.203125 L 6.390625 -3.203125 C 7.261719 -3.203125 7.996094 -3.921875 7.996094 -4.789062 Z M 7.996094 -4.789062 "/></g></g></g><g fill="#000000" fill-opacity="1"><g transform="translate(219.23145, 235.696758)"><g><path d="M 6.921875 -1.601562 L 6.921875 -3.734375 C 6.921875 -4.601562 6.1875 -5.320312 5.320312 -5.320312 L 3.734375 -5.320312 L 3.734375 -6.390625 L 6.496094 -6.390625 L 6.496094 -8.523438 L 2.128906 -8.523438 C 1.261719 -8.523438 0.527344 -7.789062 0.527344 -6.921875 L 0.527344 -4.789062 C 0.527344 -3.921875 1.261719 -3.203125 2.128906 -3.203125 L 3.734375 -3.203125 L 3.734375 -2.128906 L 0.527344 -2.128906 L 0.527344 0 L 5.320312 0 C 6.1875 0 6.921875 -0.734375 6.921875 -1.601562 Z M 6.921875 -1.601562 "/></g></g></g><g fill="#000000" fill-opacity="1"><g transform="translate(226.680935, 235.696758)"><g><path d="M 6.921875 -1.601562 L 6.921875 -3.734375 C 6.921875 -4.601562 6.1875 -5.320312 5.320312 -5.320312 L 3.734375 -5.320312 L 3.734375 -6.390625 L 6.496094 -6.390625 L 6.496094 -8.523438 L 2.128906 -8.523438 C 1.261719 -8.523438 0.527344 -7.789062 0.527344 -6.921875 L 0.527344 -4.789062 C 0.527344 -3.921875 1.261719 -3.203125 2.128906 -3.203125 L 3.734375 -3.203125 L 3.734375 -2.128906 L 0.527344 -2.128906 L 0.527344 0 L 5.320312 0 C 6.1875 0 6.921875 -0.734375 6.921875 -1.601562 Z M 6.921875 -1.601562 "/></g></g></g><g fill="#000000" fill-opacity="1"><g transform="translate(234.13042, 235.696758)"><g/></g></g><g fill="#000000" fill-opacity="1"><g transform="translate(238.596691, 235.696758)"><g><path d="M 0.527344 -1.601562 C 0.527344 -0.734375 1.261719 0 2.128906 0 L 9.582031 0 L 9.582031 -3.203125 L 8.523438 -3.203125 L 8.523438 -4.789062 L 9.699219 -4.789062 L 9.699219 -7.996094 L 8.523438 -7.996094 L 8.523438 -9.582031 L 5.320312 -9.582031 L 5.320312 -7.996094 L 3.734375 -7.996094 L 3.734375 -9.582031 L 4.789062 -9.582031 L 4.789062 -11.726562 L 2.128906 -11.726562 C 1.261719 -11.726562 0.527344 -10.996094 0.527344 -10.125 L 0.527344 -7.996094 C 0.527344 -7.125 1.261719 -6.390625 2.128906 -6.390625 C 1.261719 -6.390625 0.527344 -5.660156 0.527344 -4.789062 Z M 5.320312 -4.789062 L 5.320312 -3.203125 L 3.734375 -3.203125 L 3.734375 -4.789062 Z M 5.320312 -4.789062 "/></g></g></g><g fill="#000000" fill-opacity="1"><g transform="translate(248.824811, 235.696758)"><g/></g></g><g fill="#000000" fill-opacity="1"><g transform="translate(253.291081, 235.696758)"><g><path d="M 7.996094 0 L 7.996094 -11.726562 L 4.789062 -11.726562 L 4.789062 -7.464844 L 3.734375 -7.464844 L 3.734375 -11.726562 L 0.527344 -11.726562 L 0.527344 0 L 3.734375 0 L 3.734375 -4.261719 L 4.789062 -4.261719 L 4.789062 0 Z M 7.996094 0 "/></g></g></g><g fill="#000000" fill-opacity="1"><g transform="translate(261.814512, 235.696758)"><g><path d="M 4.789062 -5.320312 L 3.734375 -5.320312 L 3.734375 -6.390625 L 4.789062 -6.390625 Z M 7.996094 -4.789062 L 7.996094 -6.921875 C 7.996094 -7.789062 7.261719 -8.523438 6.390625 -8.523438 L 2.128906 -8.523438 C 1.261719 -8.523438 0.527344 -7.789062 0.527344 -6.921875 L 0.527344 -1.601562 C 0.527344 -0.734375 1.261719 0 2.128906 0 L 7.464844 0 L 7.464844 -2.128906 L 3.734375 -2.128906 L 3.734375 -3.203125 L 6.390625 -3.203125 C 7.261719 -3.203125 7.996094 -3.921875 7.996094 -4.789062 Z M 7.996094 -4.789062 "/></g></g></g><g fill="#000000" fill-opacity="1"><g transform="translate(270.337943, 235.696758)"><g><path d="M 4.585938 -2.128906 L 3.511719 -2.128906 L 3.511719 -3.203125 L 4.585938 -3.203125 Z M 7.773438 0 L 7.773438 -6.921875 C 7.773438 -7.789062 7.039062 -8.523438 6.171875 -8.523438 L 0.851562 -8.523438 L 0.851562 -6.390625 L 4.585938 -6.390625 L 4.585938 -5.320312 L 1.910156 -5.320312 C 1.039062 -5.320312 0.324219 -4.601562 0.324219 -3.734375 L 0.324219 -1.601562 C 0.324219 -0.734375 1.039062 0 1.910156 0 Z M 7.773438 0 "/></g></g></g><g fill="#000000" fill-opacity="1"><g transform="translate(278.639772, 235.696758)"><g><path d="M 3.734375 0 L 3.734375 -11.726562 L 0.527344 -11.726562 L 0.527344 0 Z M 3.734375 0 "/></g></g></g><g fill="#000000" fill-opacity="1"><g transform="translate(282.901496, 235.696758)"><g><path d="M 6.921875 0 L 6.921875 -2.128906 L 4.789062 -2.128906 L 4.789062 -6.390625 L 6.921875 -6.390625 L 6.921875 -8.523438 L 4.789062 -8.523438 L 4.789062 -11.726562 L 1.601562 -11.726562 L 1.601562 -8.523438 L 0.527344 -8.523438 L 0.527344 -6.390625 L 1.601562 -6.390625 L 1.601562 -1.601562 C 1.601562 -0.734375 2.335938 0 3.203125 0 Z M 6.921875 0 "/></g></g></g><g fill="#000000" fill-opacity="1"><g transform="translate(290.350981, 235.696758)"><g><path d="M 7.996094 0 L 7.996094 -6.921875 C 7.996094 -7.789062 7.261719 -8.523438 6.390625 -8.523438 L 3.734375 -8.523438 L 3.734375 -11.726562 L 0.527344 -11.726562 L 0.527344 0 L 3.734375 0 L 3.734375 -6.390625 L 4.789062 -6.390625 L 4.789062 0 Z M 7.996094 0 "/></g></g></g><g clip-path="url(#306f29e944)"><path fill="#000000" d="M 169.171875 207.140625 L 325.828125 207.140625 L 325.828125 211.617188 L 169.171875 211.617188 Z M 169.171875 207.140625 " fill-opacity="1" fill-rule="nonzero"/></g><g clip-path="url(#ec732b6f36)"><path fill="#222222" d="M 177.277344 204.625 L 183.019531 204.625 L 183.019531 213.90625 L 177.277344 213.90625 Z M 177.277344 204.625 " fill-opacity="1" fill-rule="nonzero"/></g><g clip-path="url(#481508286d)"><path fill="#222222" d="M 296.179688 204.625 L 301.925781 204.625 L 301.925781 213.90625 L 296.179688 213.90625 Z M 296.179688 204.625 " fill-opacity="1" fill-rule="nonzero"/></g><g clip-path="url(#c62d6dd702)"><path fill="#222222" d="M 163.296875 198.285156 L 172.574219 198.285156 L 172.574219 219.496094 L 163.296875 219.496094 Z M 163.296875 198.285156 " fill-opacity="1" fill-rule="nonzero"/></g><g clip-path="url(#e460fca42a)"><g clip-path="url(#9424eb0d2b)"><path fill="#222222" d="M 153.308594 198.285156 L 174.523438 198.285156 L 174.523438 219.496094 L 153.308594 219.496094 Z M 153.308594 198.285156 " fill-opacity="1" fill-rule="nonzero"/></g></g><g clip-path="url(#d0b87efcba)"><g clip-path="url(#257d32a305)"><path fill="#222222" d="M 304.808594 198.667969 L 326.019531 198.667969 L 326.019531 219.878906 L 304.808594 219.878906 Z M 304.808594 198.667969 " fill-opacity="1" fill-rule="nonzero"/></g></g><g clip-path="url(#9768dc90ac)"><path fill="#222222" d="M 306.335938 198.667969 L 315.617188 198.667969 L 315.617188 219.878906 L 306.335938 219.878906 Z M 306.335938 198.667969 " fill-opacity="1" fill-rule="nonzero"/></g></svg>